<?xml version="1.0" encoding="UTF-8" standalone="no"?>
<!DOCTYPE svg PUBLIC "-//W3C//DTD SVG 1.1//EN"
 "http://www.w3.org/Graphics/SVG/1.1/DTD/svg11.dtd">
<!-- Generated by graphviz version 7.1.0 (20230121.1956)
 -->
<!-- Pages: 1 -->
<svg width="544pt" height="476pt"
 viewBox="0.00 0.00 544.25 476.00" xmlns="http://www.w3.org/2000/svg" xmlns:xlink="http://www.w3.org/1999/xlink">
<g id="graph0" class="graph" transform="scale(1 1) rotate(0) translate(4 472)">
<polygon fill="white" stroke="none" points="-4,4 -4,-472 540.25,-472 540.25,4 -4,4"/>
<!-- [root] aws_instance.demo2 (expand) -->
<g id="node1" class="node">
<title>[root] aws_instance.demo2 (expand)</title>
<polygon fill="none" stroke="black" points="373.77,-324 243.77,-324 243.77,-288 373.77,-288 373.77,-324"/>
<text text-anchor="middle" x="308.77" y="-302.3" font-family="Times,serif" font-size="14.00">aws_instance.demo2</text>
</g>
<!-- [root] aws_network_interface.demo2 (expand) -->
<g id="node2" class="node">
<title>[root] aws_network_interface.demo2 (expand)</title>
<polygon fill="none" stroke="black" points="340.77,-252 156.77,-252 156.77,-216 340.77,-216 340.77,-252"/>
<text text-anchor="middle" x="248.77" y="-230.3" font-family="Times,serif" font-size="14.00">aws_network_interface.demo2</text>
</g>
<!-- [root] aws_instance.demo2 (expand)&#45;&gt;[root] aws_network_interface.demo2 (expand) -->
<g id="edge1" class="edge">
<title>[root] aws_instance.demo2 (expand)&#45;&gt;[root] aws_network_interface.demo2 (expand)</title>
<path fill="none" stroke="black" d="M293.94,-287.7C286.96,-279.56 278.5,-269.69 270.8,-260.7"/>
<polygon fill="black" stroke="black" points="273.58,-258.57 264.41,-253.25 268.26,-263.12 273.58,-258.57"/>
</g>
<!-- [root] data.aws_ami.amazon_linux (expand) -->
<g id="node5" class="node">
<title>[root] data.aws_ami.amazon_linux (expand)</title>
<polygon fill="none" stroke="black" points="478.27,-180 305.27,-180 305.27,-144 478.27,-144 478.27,-180"/>
<text text-anchor="middle" x="391.77" y="-158.3" font-family="Times,serif" font-size="14.00">data.aws_ami.amazon_linux</text>
</g>
<!-- [root] aws_instance.demo2 (expand)&#45;&gt;[root] data.aws_ami.amazon_linux (expand) -->
<g id="edge2" class="edge">
<title>[root] aws_instance.demo2 (expand)&#45;&gt;[root] data.aws_ami.amazon_linux (expand)</title>
<path fill="none" stroke="black" d="M323.82,-287.55C332.06,-277.53 342.11,-264.5 349.77,-252 361.82,-232.33 372.84,-208.66 380.56,-190.68"/>
<polygon fill="black" stroke="black" points="383.69,-192.27 384.34,-181.7 377.24,-189.56 383.69,-192.27"/>
</g>
<!-- [root] aws_subnet.demo2 (expand) -->
<g id="node3" class="node">
<title>[root] aws_subnet.demo2 (expand)</title>
<polygon fill="none" stroke="black" points="287.27,-180 166.27,-180 166.27,-144 287.27,-144 287.27,-180"/>
<text text-anchor="middle" x="226.77" y="-158.3" font-family="Times,serif" font-size="14.00">aws_subnet.demo2</text>
</g>
<!-- [root] aws_network_interface.demo2 (expand)&#45;&gt;[root] aws_subnet.demo2 (expand) -->
<g id="edge3" class="edge">
<title>[root] aws_network_interface.demo2 (expand)&#45;&gt;[root] aws_subnet.demo2 (expand)</title>
<path fill="none" stroke="black" d="M243.33,-215.7C240.99,-208.24 238.18,-199.32 235.56,-190.97"/>
<polygon fill="black" stroke="black" points="238.94,-190.04 232.6,-181.55 232.26,-192.14 238.94,-190.04"/>
</g>
<!-- [root] aws_vpc.demo2 (expand) -->
<g id="node4" class="node">
<title>[root] aws_vpc.demo2 (expand)</title>
<polygon fill="none" stroke="black" points="124.27,-108 19.27,-108 19.27,-72 124.27,-72 124.27,-108"/>
<text text-anchor="middle" x="71.77" y="-86.3" font-family="Times,serif" font-size="14.00">aws_vpc.demo2</text>
</g>
<!-- [root] aws_subnet.demo2 (expand)&#45;&gt;[root] aws_vpc.demo2 (expand) -->
<g id="edge4" class="edge">
<title>[root] aws_subnet.demo2 (expand)&#45;&gt;[root] aws_vpc.demo2 (expand)</title>
<path fill="none" stroke="black" d="M188.06,-143.52C167.63,-134.29 142.37,-122.89 120.62,-113.06"/>
<polygon fill="black" stroke="black" points="122.19,-109.93 111.64,-109 119.31,-116.31 122.19,-109.93"/>
</g>
<!-- [root] data.aws_availability_zones.available (expand) -->
<g id="node6" class="node">
<title>[root] data.aws_availability_zones.available (expand)</title>
<polygon fill="none" stroke="black" points="363.27,-108 142.27,-108 142.27,-72 363.27,-72 363.27,-108"/>
<text text-anchor="middle" x="252.77" y="-86.3" font-family="Times,serif" font-size="14.00">data.aws_availability_zones.available</text>
</g>
<!-- [root] aws_subnet.demo2 (expand)&#45;&gt;[root] data.aws_availability_zones.available (expand) -->
<g id="edge5" class="edge">
<title>[root] aws_subnet.demo2 (expand)&#45;&gt;[root] data.aws_availability_zones.available (expand)</title>
<path fill="none" stroke="black" d="M233.2,-143.7C236,-136.15 239.35,-127.12 242.49,-118.68"/>
<polygon fill="black" stroke="black" points="245.69,-120.12 245.89,-109.52 239.13,-117.68 245.69,-120.12"/>
</g>
<!-- [root] provider[&quot;registry.terraform.io/hashicorp/aws&quot;] -->
<g id="node7" class="node">
<title>[root] provider[&quot;registry.terraform.io/hashicorp/aws&quot;]</title>
<polygon fill="none" stroke="black" points="252.77,-36 0.23,-18 252.77,0 505.3,-18 252.77,-36"/>
<text text-anchor="middle" x="252.77" y="-14.3" font-family="Times,serif" font-size="14.00">provider[&quot;registry.terraform.io/hashicorp/aws&quot;]</text>
</g>
<!-- [root] aws_vpc.demo2 (expand)&#45;&gt;[root] provider[&quot;registry.terraform.io/hashicorp/aws&quot;] -->
<g id="edge6" class="edge">
<title>[root] aws_vpc.demo2 (expand)&#45;&gt;[root] provider[&quot;registry.terraform.io/hashicorp/aws&quot;]</title>
<path fill="none" stroke="black" d="M116.98,-71.52C143.6,-61.22 177.27,-48.2 204.42,-37.7"/>
<polygon fill="black" stroke="black" points="205.38,-41.08 213.44,-34.21 202.85,-34.55 205.38,-41.08"/>
</g>
<!-- [root] data.aws_ami.amazon_linux (expand)&#45;&gt;[root] provider[&quot;registry.terraform.io/hashicorp/aws&quot;] -->
<g id="edge7" class="edge">
<title>[root] data.aws_ami.amazon_linux (expand)&#45;&gt;[root] provider[&quot;registry.terraform.io/hashicorp/aws&quot;]</title>
<path fill="none" stroke="black" d="M392.27,-143.63C391.93,-124.1 388.53,-92.46 371.77,-72 358.53,-55.84 339.34,-44.44 320.23,-36.47"/>
<polygon fill="black" stroke="black" points="321.66,-33.27 311.07,-32.93 319.14,-39.8 321.66,-33.27"/>
</g>
<!-- [root] data.aws_availability_zones.available (expand)&#45;&gt;[root] provider[&quot;registry.terraform.io/hashicorp/aws&quot;] -->
<g id="edge8" class="edge">
<title>[root] data.aws_availability_zones.available (expand)&#45;&gt;[root] provider[&quot;registry.terraform.io/hashicorp/aws&quot;]</title>
<path fill="none" stroke="black" d="M252.77,-71.7C252.77,-64.41 252.77,-55.73 252.77,-47.54"/>
<polygon fill="black" stroke="black" points="256.27,-47.62 252.77,-37.62 249.27,-47.62 256.27,-47.62"/>
</g>
<!-- [root] provider[&quot;registry.terraform.io/hashicorp/aws&quot;] (close) -->
<g id="node8" class="node">
<title>[root] provider[&quot;registry.terraform.io/hashicorp/aws&quot;] (close)</title>
<ellipse fill="none" stroke="black" cx="308.77" cy="-378" rx="227.46" ry="18"/>
<text text-anchor="middle" x="308.77" y="-374.3" font-family="Times,serif" font-size="14.00">[root] provider[&quot;registry.terraform.io/hashicorp/aws&quot;] (close)</text>
</g>
<!-- [root] provider[&quot;registry.terraform.io/hashicorp/aws&quot;] (close)&#45;&gt;[root] aws_instance.demo2 (expand) -->
<g id="edge9" class="edge">
<title>[root] provider[&quot;registry.terraform.io/hashicorp/aws&quot;] (close)&#45;&gt;[root] aws_instance.demo2 (expand)</title>
<path fill="none" stroke="black" d="M308.77,-359.7C308.77,-352.41 308.77,-343.73 308.77,-335.54"/>
<polygon fill="black" stroke="black" points="312.27,-335.62 308.77,-325.62 305.27,-335.62 312.27,-335.62"/>
</g>
<!-- [root] root -->
<g id="node9" class="node">
<title>[root] root</title>
<ellipse fill="none" stroke="black" cx="308.77" cy="-450" rx="47.39" ry="18"/>
<text text-anchor="middle" x="308.77" y="-446.3" font-family="Times,serif" font-size="14.00">[root] root</text>
</g>
<!-- [root] root&#45;&gt;[root] provider[&quot;registry.terraform.io/hashicorp/aws&quot;] (close) -->
<g id="edge10" class="edge">
<title>[root] root&#45;&gt;[root] provider[&quot;registry.terraform.io/hashicorp/aws&quot;] (close)</title>
<path fill="none" stroke="black" d="M308.77,-431.7C308.77,-424.41 308.77,-415.73 308.77,-407.54"/>
<polygon fill="black" stroke="black" points="312.27,-407.62 308.77,-397.62 305.27,-407.62 312.27,-407.62"/>
</g>
</g>
</svg>
